<?xml version="1.0" encoding="iso-8859-1"?>
<!-- Generator: Adobe Illustrator 19.0.0, SVG Export Plug-In . SVG Version: 6.00 Build 0)  -->
<svg xmlns="http://www.w3.org/2000/svg" xmlns:xlink="http://www.w3.org/1999/xlink" version="1.1" id="Capa_1" x="0px" y="0px" viewBox="0 0 230.361 230.361" style="enable-background:new 0 0 230.361 230.361;" xml:space="preserve" width="512px" height="512px">
<g>
	<path d="M107.738,30.184c1.794,1.67,3.94,4.6,1.952,10.77c-0.22,0.584-0.334,1.324-0.334,1.945c0,2.948,2.524,5.463,5.627,5.463   h0.008c0.886,0,1.766-0.313,2.511-0.67c7.759-3.638,10.286-8.998,11.04-12.806c0.976-4.93-0.479-10.177-4.098-14.723   c-4.758-5.977-5.6-8.696-4.091-13.192c0.835-2.524-0.345-5.222-2.79-6.395c-1.564-0.759-3.543-0.766-5.095-0.029   c-5.899,2.777-9.678,6.984-10.925,12.165C100.098,18.699,102.414,25.229,107.738,30.184z" fill="#FFFFFF"/>
	<path d="M79.788,42.222c1.293,1.204,2.599,3.121,1.256,7.315c-0.21,0.566-0.319,1.092-0.319,1.693c0,2.871,2.434,5.131,5.426,5.131   h0.004c0.843,0,1.685-0.113,2.396-0.455c5.035-2.359,8.303-6.117,9.198-10.648c0.823-4.151-0.386-8.506-3.404-12.299   c-3.704-4.65-4.005-6.393-3.045-9.255c0.848-2.446-0.311-5.152-2.713-6.311c-1.49-0.708-3.342-0.714-4.842-0.008   c-6.19,2.918-8.362,7.156-9.094,10.196C73.433,32.623,75.354,38.097,79.788,42.222z" fill="#FFFFFF"/>
	<path d="M180.609,78.361h-13.925c-0.859-8-5.368-12-14.024-12H50.468c-9.42,0-13.954,4.463-13.954,14.471v25.529h64v27h-64v24.888   c0,11.197,9.7,32.112,32.266,32.112h65.568c14.429,0,23.643-9,28.444-18h17.816c11.996,0,21.905-9.416,21.905-21.412V99.647   C202.514,87.651,192.605,78.361,180.609,78.361z M178.514,149.361h-12v-48h12V149.361z" fill="#FFFFFF"/>
	<path d="M160.847,202.361h-119c-7.72,0-14,6.28-14,14s6.28,14,14,14h119c7.72,0,14-6.28,14-14S168.567,202.361,160.847,202.361z" fill="#FFFFFF"/>
</g>
<g>
</g>
<g>
</g>
<g>
</g>
<g>
</g>
<g>
</g>
<g>
</g>
<g>
</g>
<g>
</g>
<g>
</g>
<g>
</g>
<g>
</g>
<g>
</g>
<g>
</g>
<g>
</g>
<g>
</g>
</svg>
