<?xml version="1.0" encoding="iso-8859-1"?>
<!-- Generator: Adobe Illustrator 18.0.0, SVG Export Plug-In . SVG Version: 6.00 Build 0)  -->
<!DOCTYPE svg PUBLIC "-//W3C//DTD SVG 1.1//EN" "http://www.w3.org/Graphics/SVG/1.1/DTD/svg11.dtd">
<svg xmlns="http://www.w3.org/2000/svg" xmlns:xlink="http://www.w3.org/1999/xlink" version="1.1" id="Capa_1" x="0px" y="0px" viewBox="0 0 297 297" style="enable-background:new 0 0 297 297;" xml:space="preserve" width="512px" height="512px">
<g>
	<path d="M194.151,71.992h0.995c5.54,0,10.032-4.492,10.032-10.033c0-5.539-4.492-10.031-10.032-10.031h-0.995   c-5.54,0-10.031,4.492-10.031,10.031C184.12,67.5,188.611,71.992,194.151,71.992z" fill="#FFFFFF"/>
	<path d="M222.991,71.992h0.994c5.54,0,10.032-4.492,10.032-10.033c0-5.539-4.492-10.031-10.032-10.031h-0.994   c-5.54,0-10.032,4.492-10.032,10.031C212.959,67.5,217.451,71.992,222.991,71.992z" fill="#FFFFFF"/>
	<path d="M252.331,72.492c5.54,0,10.032-4.49,10.032-10.031v-0.502c0-5.539-4.492-10.031-10.032-10.031h-0.502   c-5.54,0-10.032,4.492-10.032,10.031c0,2.898,1.229,5.51,3.194,7.34C246.822,71.264,249.433,72.492,252.331,72.492z" fill="#FFFFFF"/>
	<path d="M252.331,109.123c-5.54,0-10.032,4.492-10.032,10.031v0.994c0,5.541,4.492,10.033,10.032,10.033   c5.54,0,10.032-4.492,10.032-10.033v-0.994C262.363,113.615,257.871,109.123,252.331,109.123z" fill="#FFFFFF"/>
	<path d="M262.363,90.311c0-5.541-4.492-10.031-10.032-10.031c-5.54,0-10.032,4.49-10.032,10.031v0.994   c0,5.541,4.492,10.033,10.032,10.033c5.54,0,10.032-4.492,10.032-10.033V90.311z" fill="#FFFFFF"/>
	<path d="M102.85,225.01h-0.995c-5.54,0-10.031,4.492-10.031,10.031c0,5.541,4.491,10.033,10.031,10.033h0.995   c5.54,0,10.032-4.492,10.032-10.033C112.882,229.502,108.39,225.01,102.85,225.01z" fill="#FFFFFF"/>
	<path d="M74.011,225.01h-0.994c-5.54,0-10.032,4.492-10.032,10.031c0,5.541,4.492,10.033,10.032,10.033h0.994   c5.54,0,10.032-4.492,10.032-10.033C84.043,229.502,79.551,225.01,74.011,225.01z" fill="#FFFFFF"/>
	<path d="M44.671,224.508c-5.54,0-10.032,4.492-10.032,10.033v0.5c0,5.541,4.492,10.033,10.032,10.033h0.502   c5.54,0,10.032-4.492,10.032-10.033c0-2.896-1.229-5.508-3.194-7.34C50.18,225.736,47.569,224.508,44.671,224.508z" fill="#FFFFFF"/>
	<path d="M44.671,195.664c-5.54,0-10.032,4.492-10.032,10.031v0.994c0,5.541,4.492,10.033,10.032,10.033s10.032-4.492,10.032-10.033   v-0.994C54.703,200.156,50.211,195.664,44.671,195.664z" fill="#FFFFFF"/>
	<path d="M54.703,176.852c0-5.539-4.492-10.031-10.032-10.031s-10.032,4.492-10.032,10.031v0.994   c0,5.541,4.492,10.033,10.032,10.033s10.032-4.492,10.032-10.033V176.852z" fill="#FFFFFF"/>
	<path d="M34.639,148.5v0.502c0,5.541,4.492,10.031,10.032,10.031s10.032-4.49,10.032-10.031V148.5c0-2.867-1.209-5.447-3.138-7.275   H148.5c5.54,0,10.032-4.492,10.032-10.031v-26.592H0.025v26.592c0,5.539,4.492,10.031,10.032,10.031h27.72   C35.848,143.053,34.639,145.633,34.639,148.5z" fill="#FFFFFF"/>
	<path d="M158.532,68.855c1.828,1.928,4.407,3.137,7.273,3.137h0.501c5.54,0,10.032-4.492,10.032-10.033   c0-5.539-4.492-10.031-10.032-10.031h-0.501c-2.866,0-5.445,1.209-7.273,3.135V10.033C158.532,4.492,154.04,0,148.5,0H10.058   C4.518,0,0.025,4.492,0.025,10.033v78.518h158.507V68.855z" fill="#FFFFFF"/>
	<path d="M286.942,155.775h-27.718c1.93-1.828,3.139-4.408,3.139-7.275v-0.502c0-5.539-4.492-10.031-10.032-10.031   c-5.54,0-10.032,4.492-10.032,10.031v0.502c0,2.867,1.209,5.447,3.138,7.275H148.5c-5.54,0-10.032,4.492-10.032,10.033v62.338   c-1.828-1.928-4.407-3.137-7.273-3.137h-0.501c-5.54,0-10.032,4.492-10.032,10.031c0,5.541,4.492,10.033,10.032,10.033h0.501   c2.866,0,5.445-1.209,7.273-3.137v3.836h158.507v-79.965C296.975,160.268,292.482,155.775,286.942,155.775z" fill="#FFFFFF"/>
	<path d="M138.468,286.969c0,5.539,4.492,10.031,10.032,10.031h138.442c5.54,0,10.032-4.492,10.032-10.031V261.9H138.468V286.969z" fill="#FFFFFF"/>
</g>
<g>
</g>
<g>
</g>
<g>
</g>
<g>
</g>
<g>
</g>
<g>
</g>
<g>
</g>
<g>
</g>
<g>
</g>
<g>
</g>
<g>
</g>
<g>
</g>
<g>
</g>
<g>
</g>
<g>
</g>
</svg>
