<?xml version="1.0" encoding="iso-8859-1"?>
<!-- Generator: Adobe Illustrator 19.0.0, SVG Export Plug-In . SVG Version: 6.00 Build 0)  -->
<svg xmlns="http://www.w3.org/2000/svg" xmlns:xlink="http://www.w3.org/1999/xlink" version="1.1" id="Capa_1" x="0px" y="0px" viewBox="0 0 234.121 234.121" style="enable-background:new 0 0 234.121 234.121;" xml:space="preserve" width="512px" height="512px">
<g>
	<path d="M159.635,82.894c-11.168-10.11-26.288-15.679-42.574-15.679c-16.285,0-31.405,5.568-42.574,15.679   c-11.643,10.54-18.056,25.228-18.056,41.357c0,27.668,15.389,42.661,20.445,47.588c1.361,1.326,4.104,4.766,7.428,9.145   c-2.43,2.298-3.934,5.412-3.934,8.844c0,4.016,2.053,7.599,5.249,9.943c-0.298,0.974-0.47,1.995-0.47,3.055   c0,3.836,2.096,7.228,5.292,9.293c-0.499,1.149-0.781,2.602-0.781,3.911c0,5.556,4.935,10.28,11,10.28h32.802   c6.064,0,10.999-4.724,10.999-10.28c0-1.309-0.283-2.66-0.781-3.808c3.196-2.064,5.293-5.508,5.293-9.344   c0-1.06-0.172-2.107-0.47-3.081c3.196-2.344,5.248-5.94,5.248-9.956c0-3.36-1.445-6.419-3.786-8.702   c3.46-4.511,6.319-8.068,7.721-9.43c13.461-13.067,20.005-28.591,20.005-47.457C177.691,108.123,171.278,93.434,159.635,82.894z    M117.061,111.994l20.144,27.316h-10.478v38h-20v-38h-9.811L117.061,111.994z" fill="#FFFFFF"/>
	<path d="M116.728,50.896c6.56,0,12-5.317,12-11.877V19.688c0-6.56-5.44-11.877-12-11.877s-12,5.317-12,11.877V39.02   C104.728,45.579,110.168,50.896,116.728,50.896z" fill="#FFFFFF"/>
	<path d="M222.244,107.31h-19.33c-6.56,0-11.877,5.44-11.877,12s5.317,12,11.877,12h19.33c6.56,0,11.877-5.44,11.877-12   S228.804,107.31,222.244,107.31z" fill="#FFFFFF"/>
	<path d="M31.208,107.31H11.877c-6.56,0-11.877,5.44-11.877,12s5.317,12,11.877,12h19.331c6.56,0,11.877-5.44,11.877-12   S37.768,107.31,31.208,107.31z" fill="#FFFFFF"/>
	<path d="M62.313,51.089L46.639,36.982c-4.875-4.388-12.386-3.992-16.773,0.883c-4.388,4.876-3.993,12.386,0.883,16.773   l15.674,14.106c2.27,2.043,5.11,3.049,7.941,3.049c3.25,0,6.487-1.326,8.832-3.932C67.583,62.986,67.188,55.477,62.313,51.089z" fill="#FFFFFF"/>
	<path d="M204.256,37.865c-4.39-4.877-11.898-5.271-16.773-0.883L171.81,51.089c-4.876,4.389-5.271,11.898-0.883,16.773   c2.346,2.606,5.582,3.932,8.832,3.932c2.831,0,5.672-1.006,7.941-3.049l15.673-14.106C208.249,50.25,208.644,42.74,204.256,37.865z   " fill="#FFFFFF"/>
</g>
<g>
</g>
<g>
</g>
<g>
</g>
<g>
</g>
<g>
</g>
<g>
</g>
<g>
</g>
<g>
</g>
<g>
</g>
<g>
</g>
<g>
</g>
<g>
</g>
<g>
</g>
<g>
</g>
<g>
</g>
</svg>
