<?xml version="1.0" encoding="iso-8859-1"?>
<!-- Generator: Adobe Illustrator 19.0.0, SVG Export Plug-In . SVG Version: 6.00 Build 0)  -->
<svg xmlns="http://www.w3.org/2000/svg" xmlns:xlink="http://www.w3.org/1999/xlink" version="1.1" id="Capa_1" x="0px" y="0px" viewBox="0 0 215 215" style="enable-background:new 0 0 215 215;" xml:space="preserve" width="512px" height="512px">
<g>
	<path d="M0,209.5h215v-38H0V209.5z M168,181.5h23v18h-23V181.5z M118,181.5h24v18h-24V181.5z" fill="#3b9c92"/>
	<polygon points="168.422,126.832 150.273,95.5 129.159,95.5 118.626,74.542 98.836,109.667 87.407,95.5 66.554,95.5    54.626,122.775 37.055,86.688 31.273,95.5 0,95.5 0,154.5 171.735,154.5 171.963,154.893 172.073,154.5 215,154.5 215,95.5    177.226,95.5  " fill="#3b9c92"/>
	<polygon points="0,5.5 0,78.5 24.622,78.5 38.466,52.607 51.728,78.5 95.848,78.5 119.495,35.231 136.463,78.5 167.295,78.5    174.188,56.596 188.755,78.5 215,78.5 215,5.5  " fill="#3b9c92"/>
</g>
<g>
</g>
<g>
</g>
<g>
</g>
<g>
</g>
<g>
</g>
<g>
</g>
<g>
</g>
<g>
</g>
<g>
</g>
<g>
</g>
<g>
</g>
<g>
</g>
<g>
</g>
<g>
</g>
<g>
</g>
</svg>
