<?xml version="1.0" encoding="iso-8859-1"?>
<!-- Generator: Adobe Illustrator 19.0.0, SVG Export Plug-In . SVG Version: 6.00 Build 0)  -->
<svg xmlns="http://www.w3.org/2000/svg" xmlns:xlink="http://www.w3.org/1999/xlink" version="1.1" id="Capa_1" x="0px" y="0px" viewBox="0 0 232 232" style="enable-background:new 0 0 232 232;" xml:space="preserve" width="512px" height="512px">
<g>
	<polygon points="190,134.5 175,134.5 175,57.5 153,57.5 153,134.5 143,134.5 143,73.5 121,73.5 121,134.5 111,134.5 111,89.5    89,89.5 89,134.5 79,134.5 79,106.5 57,106.5 57,134.5 41,134.5 41,157.5 190,157.5  " fill="#63bbb2"/>
	<path d="M232,14.5H0v187h80v16h72v-16h80V14.5z M207,176.5H25v-137h182V176.5z" fill="#63bbb2"/>
</g>
<g>
</g>
<g>
</g>
<g>
</g>
<g>
</g>
<g>
</g>
<g>
</g>
<g>
</g>
<g>
</g>
<g>
</g>
<g>
</g>
<g>
</g>
<g>
</g>
<g>
</g>
<g>
</g>
<g>
</g>
</svg>
