<?xml version="1.0" encoding="iso-8859-1"?>
<!-- Generator: Adobe Illustrator 19.0.0, SVG Export Plug-In . SVG Version: 6.00 Build 0)  -->
<svg xmlns="http://www.w3.org/2000/svg" xmlns:xlink="http://www.w3.org/1999/xlink" version="1.1" id="Capa_1" x="0px" y="0px" viewBox="0 0 238 238" style="enable-background:new 0 0 238 238;" xml:space="preserve" width="512px" height="512px">
<g>
	<path d="M88.983,133.031l0.887-3.269l5.025-2.432l3.671,2.071c1.637,0.929,3.539,1.412,5.5,1.412c3.063,0,6.007-1.191,8.078-3.262   l12.512-12.513c3.529-3.529,4.304-9.242,1.84-13.582l-1.836-3.235l2.081-4.964l3.239-0.971c4.812-1.328,8.02-5.914,8.02-10.903   V63.688c0-2.927-0.964-5.849-3.133-8.018c-1.389-1.387-2.937-2.384-4.825-2.902l-3.276-0.827l-2.153-5.815l1.963-3.43   c2.465-4.341,1.701-10.052-1.828-13.581l-12.509-12.513c-2.07-2.071-5.012-3.259-8.074-3.259c-1.905,0-3.753,0.463-5.356,1.34   l-5.178,2.29c-1.719-0.929-3.446-1.876-4.447-2.444l-0.899-3.26c-0.5-1.812-1.497-3.266-2.885-4.653   c-2.17-2.168-5.092-3.176-8.017-3.176H59.686c-4.99,0-9.575,3.255-10.9,8.066l-1.011,3.545l-4.096,2.322l-3.618-2.385l-0.16-0.111   c-1.637-0.929-3.538-1.426-5.5-1.426c-3.063,0-6.008,1.185-8.079,3.256L13.81,29.215c-3.527,3.527-4.301,9.236-1.84,13.578   l1.84,3.24l-2.169,5.216L8.45,52.086C3.642,53.414,0,57.999,0,62.989v17.695c0,2.927,1.394,5.85,3.563,8.019   c1.386,1.386,3.15,2.383,4.963,2.885l2.879,0.784l2.414,5.871l-1.756,3.111c-2.465,4.341-1.688,10.053,1.842,13.581l12.515,12.514   c2.071,2.071,5.016,3.259,8.078,3.259c1.963,0,3.867-0.492,5.504-1.422l3.106-1.763l5.514,2.283l0.86,3.124   c0.501,1.813,1.499,3.607,2.885,4.992c2.169,2.169,5.091,3.517,8.018,3.517h17.697C83.072,141.439,87.657,137.843,88.983,133.031z    M91.727,94.419c-5.981,5.981-13.935,9.275-22.394,9.275c-8.46,0-16.413-3.294-22.395-9.275c-12.348-12.348-12.348-32.44,0-44.788   c5.981-5.981,13.935-9.275,22.395-9.275c8.459,0,16.412,3.294,22.394,9.275C104.074,61.979,104.074,82.071,91.727,94.419z" fill="#FFFFFF"/>
	<path d="M235.708,102.217c-1.071-1.071-2.211-1.841-3.693-2.248l-1.729-0.448l-1.128-3.109l1.138-1.969   c1.901-3.352,1.315-7.762-1.408-10.487l-8.599-8.604c-1.603-1.603-3.87-2.521-6.227-2.521c-1.456,0-2.871,0.353-4.105,1.02   l-3.155,1.396l-2.159-1.068l-0.579-2.071c-0.388-1.403-1.158-2.839-2.229-3.913c-1.67-1.668-3.924-2.753-6.188-2.753h-12.169   c-3.854,0-7.394,2.824-8.417,6.539l-0.51,1.913l-2.569,1.005l-1.636-0.912c-1.269-0.721-2.74-1.094-4.254-1.094   c-2.357,0-4.629,0.923-6.232,2.525l-8.604,8.606c-2.724,2.724-3.321,7.134-1.421,10.485l1.034,1.823l-1.133,2.724l-1.984,0.452   c-3.712,1.025-6.751,4.566-6.751,8.419v12.168c0,2.264,1.3,4.521,2.969,6.189c1.069,1.069,2.547,1.84,3.955,2.229l1.586,0.414   l1.337,3.172l-0.962,1.735c-1.904,3.351-1.298,7.761,1.428,10.488l8.61,8.604c1.603,1.603,3.876,2.521,6.233,2.521   c1.514,0,2.987-0.381,4.257-1.102l1.73-0.981l2.928,1.213l0.468,1.697c0.388,1.403,1.158,2.589,2.23,3.663   c1.67,1.669,3.926,2.504,6.189,2.504h12.168c3.854,0,7.394-2.575,8.419-6.292l0.494-1.73l2.612-1.221l2.09,1.202   c1.27,0.72,2.74,1.107,4.254,1.107c2.357,0,4.629-0.915,6.23-2.517l8.603-8.601c2.727-2.725,3.324-7.135,1.421-10.487l-1.03-1.814   l1.07-2.552l1.637-0.544c3.716-1.025,6.075-4.566,6.075-8.419v-12.17C238,106.141,237.377,103.886,235.708,102.217z    M204.833,128.86c-3.933,3.933-9.161,6.099-14.723,6.099s-10.79-2.166-14.723-6.099c-8.118-8.118-8.117-21.327,0-29.445   c3.933-3.933,9.161-6.099,14.723-6.099s10.79,2.166,14.723,6.099C212.95,107.533,212.95,120.742,204.833,128.86z" fill="#FFFFFF"/>
	<path d="M162.975,185.601c3.16-2.204,4.522-6.44,3.239-10.074l-4.056-11.472c-1.256-3.554-4.877-6.004-8.68-5.811l-3.383-0.099   c-0.573-0.789-1.126-1.557-1.521-2.117l0.34-1.9c0.255-1.437,0.122-2.948-0.382-4.37c-0.786-2.228-2.409-4.064-4.452-5.04   l-10.98-5.246c-1.124-0.536-2.398-0.82-3.685-0.82c-2.562,0-5.057,1.113-6.674,2.978l-1.257,1.448l-2.737-0.229l-1.076-1.543   c-1.599-2.291-4.38-3.715-7.259-3.715c-0.973,0-1.92,0.161-2.814,0.477l-11.472,4.055c-3.633,1.284-6.072,5.005-5.802,8.85   l0.147,2.089l-2.196,1.97l-1.677-0.299c-0.476-0.085-0.965-0.128-1.453-0.128c-3.342,0-6.54,1.993-7.959,4.961l-5.244,10.979   c-0.977,2.044-1.085,4.492-0.298,6.716c0.504,1.429,1.353,2.688,2.453,3.644l1.177,1.021l-0.2,3.419l-1.638,1.143   c-3.162,2.204-4.525,6.441-3.24,10.074l4.056,11.474c1.275,3.607,5.006,6.078,8.851,5.8l1.983-0.141l2.119,2.355l-0.311,1.736   c-0.254,1.435-0.122,2.946,0.381,4.371c0.787,2.227,2.41,4.063,4.453,5.039l10.979,5.245c1.124,0.537,2.399,0.821,3.688,0.821   c2.561,0,5.056-1.113,6.673-2.978l1.219-1.404l2.896-0.003l1.374,1.971c1.598,2.291,4.379,3.714,7.258,3.714   c0.973,0,1.92-0.16,2.814-0.477l11.472-4.055c3.633-1.283,6.073-5.005,5.803-8.852l-0.147-2.081l2.065-1.841l2.014,0.358   c0.476,0.085,0.966,0.128,1.455,0.128c3.346,0,6.544-1.994,7.958-4.961l5.247-10.981c0.974-2.044,1.081-4.491,0.295-6.714   c-0.504-1.427-1.352-2.686-2.516-3.695l-1.442-1.185l0.284-3.31L162.975,185.601z" fill="#FFFFFF"/>
</g>
<g>
</g>
<g>
</g>
<g>
</g>
<g>
</g>
<g>
</g>
<g>
</g>
<g>
</g>
<g>
</g>
<g>
</g>
<g>
</g>
<g>
</g>
<g>
</g>
<g>
</g>
<g>
</g>
<g>
</g>
</svg>
