<?xml version="1.0" encoding="iso-8859-1"?>
<!-- Generator: Adobe Illustrator 19.0.0, SVG Export Plug-In . SVG Version: 6.00 Build 0)  -->
<svg xmlns="http://www.w3.org/2000/svg" xmlns:xlink="http://www.w3.org/1999/xlink" version="1.1" id="Capa_1" x="0px" y="0px" viewBox="0 0 230.785 230.785" style="enable-background:new 0 0 230.785 230.785;" xml:space="preserve" width="512px" height="512px">
<g>
	<path d="M154.618,140.328l-26.45-0.039v-32.041c0-7.911-5.363-14.348-12.5-14.348c-7.138,0-12.5,6.437-12.5,14.348v48.518   c-3-3.409-6.196-5.447-10.211-5.447c-2.217,0-4.443,0.643-6.396,1.861c-6.156,3.861-8.385,12.313-5.032,19.288   c5.485,10.915,23.475,46.737,24.697,48.569c4.064,6.153,10.23,9.748,16.928,9.748h35.335c13.545,0,20.68-7.112,20.68-19.284   v-44.628c0-0.226,0.305-0.448,0.291-0.67c0.017-0.349-0.013-0.708-0.013-1.079C179.447,151.452,168.285,140.328,154.618,140.328z" fill="#FFFFFF"/>
	<path d="M139.169,129.785h15.838c2.387,0,4.719,0.154,6.976,0.605c5.142-8.324,8.114-18.167,8.114-28.649   c0-30.103-24.491-54.615-54.594-54.615c-30.103,0-54.594,24.48-54.594,54.583c0,17.039,7.757,32.272,20.026,42.292   c3.469-2.123,7.235-3.292,11.235-3.391v-20.25c-4-5.108-6.512-11.6-6.512-18.662c0-16.406,13.393-29.754,29.799-29.754   s29.526,13.347,29.526,29.754c0,6.459-1.813,12.439-5.813,17.322V129.785z" fill="#FFFFFF"/>
	<path d="M217.025,101.698C217.025,45.622,171.491,0,115.414,0C59.338,0,13.76,45.622,13.76,101.698   c0,44.228,28.404,81.945,67.908,95.912l-9.851-20.56c-2.132-4.436-2.889-9.259-2.439-13.906   c-18.655-14.036-30.738-36.356-30.738-61.446c0-42.38,34.48-76.858,76.86-76.858c42.38,0,76.859,34.478,76.859,76.858   c0,14.485-4.029,28.046-11.024,39.623c5.703,6.303,9.182,14.654,9.182,23.803c0,0.336-0.18,0.672-0.189,1.006   c0.008,0.219-0.16,0.469-0.16,0.743v3.417C207.169,152.193,217.025,128.106,217.025,101.698z" fill="#FFFFFF"/>
</g>
<g>
</g>
<g>
</g>
<g>
</g>
<g>
</g>
<g>
</g>
<g>
</g>
<g>
</g>
<g>
</g>
<g>
</g>
<g>
</g>
<g>
</g>
<g>
</g>
<g>
</g>
<g>
</g>
<g>
</g>
</svg>
