<?xml version="1.0" encoding="iso-8859-1"?>
<!-- Generator: Adobe Illustrator 18.0.0, SVG Export Plug-In . SVG Version: 6.00 Build 0)  -->
<!DOCTYPE svg PUBLIC "-//W3C//DTD SVG 1.1//EN" "http://www.w3.org/Graphics/SVG/1.1/DTD/svg11.dtd">
<svg xmlns="http://www.w3.org/2000/svg" xmlns:xlink="http://www.w3.org/1999/xlink" version="1.1" id="Capa_1" x="0px" y="0px" viewBox="0 0 297 297" style="enable-background:new 0 0 297 297;" xml:space="preserve" width="512px" height="512px">
<g>
	<path d="M208.752,87.035h27.713V10.134C236.465,4.539,231.929,0,226.33,0h-17.578V87.035z" fill="#FFFFFF"/>
	<path d="M219.171,252.274v-63.761l47.373-31.582c2.82-1.88,4.515-5.043,4.515-8.432v-35.115c0-5.597-4.538-10.135-10.135-10.135   H36.076c-5.597,0-10.135,4.538-10.135,10.135V148.5c0,3.389,1.694,6.552,4.514,8.432l47.374,31.582v63.761   c0,5.596,4.538,10.134,10.135,10.134h121.072C214.633,262.408,219.171,257.87,219.171,252.274z M98.841,161.977   c-8.01,0-14.525-6.516-14.525-14.525c0-8.008,6.516-14.525,14.525-14.525c8.009,0,14.526,6.518,14.526,14.525   C113.367,155.461,106.85,161.977,98.841,161.977z M174.442,225.789h-51.885c-4.479,0-8.108-3.629-8.108-8.107   c0-4.477,3.629-8.105,8.108-8.105h51.885c4.479,0,8.108,3.629,8.108,8.105C182.551,222.16,178.921,225.789,174.442,225.789z    M174.442,191.196h-51.885c-4.479,0-8.108-3.628-8.108-8.107c0-4.477,3.629-8.107,8.108-8.107h51.885   c4.479,0,8.108,3.631,8.108,8.107C182.551,187.568,178.921,191.196,174.442,191.196z M198.158,161.977   c-8.01,0-14.525-6.516-14.525-14.525c0-8.008,6.516-14.525,14.525-14.525s14.526,6.518,14.526,14.525   C212.685,155.461,206.168,161.977,198.158,161.977z" fill="#FFFFFF"/>
	<path d="M88.248,87.035V0H70.669C65.07,0,60.535,4.539,60.535,10.134v76.901H88.248z" fill="#FFFFFF"/>
	<rect x="104.463" y="0" width="88.074" height="87.035" fill="#FFFFFF"/>
	<path d="M18.781,17.229h10.2v2.97c-1.874,1.841-3.04,4.397-3.04,7.232v61.636c3.122-1.306,6.546-2.03,10.135-2.03h10.135V27.43   c0-2.834-1.166-5.391-3.041-7.232V10.134c0-3.917-3.176-7.093-7.094-7.093H18.781c-3.919,0-7.095,3.176-7.095,7.093   C11.686,14.053,14.862,17.229,18.781,17.229z" fill="#FFFFFF"/>
	<path d="M273.338,185.86h15.015v-3.851c0-6.664-2.49-12.752-6.584-17.396c-1.727,2.228-3.814,4.199-6.229,5.81l-40.153,26.769   v55.083c0,14.528-11.821,26.35-26.35,26.35h-8.899C203.524,289.266,213.498,297,225.251,297h36.753   c12.939,0,23.72-9.374,25.929-21.686h-14.595c-5.596,0-10.134-4.537-10.134-10.136c0-5.595,4.538-10.133,10.134-10.133h15.015   v-14.324h-15.015c-5.596,0-10.134-4.537-10.134-10.134s4.538-10.134,10.134-10.134h15.015v-14.324h-15.015   c-5.596,0-10.134-4.538-10.134-10.134C263.204,190.398,267.742,185.86,273.338,185.86z" fill="#FFFFFF"/>
	<path d="M87.964,278.624c-14.53,0-26.35-11.821-26.35-26.35v-55.083l-40.152-26.767c-2.416-1.611-4.504-3.584-6.228-5.812   c-4.096,4.645-6.586,10.732-6.586,17.396v3.851h15.015c5.596,0,10.134,4.538,10.134,10.135c0,5.596-4.538,10.134-10.134,10.134   H8.647v14.324h15.015c5.596,0,10.134,4.537,10.134,10.134s-4.538,10.134-10.134,10.134H8.647v14.324h15.015   c5.596,0,10.134,4.538,10.134,10.133c0,5.599-4.538,10.136-10.134,10.136H9.067C11.276,287.626,22.058,297,34.996,297h36.753   c11.752,0,21.727-7.734,25.114-18.376H87.964z" fill="#FFFFFF"/>
</g>
<g>
</g>
<g>
</g>
<g>
</g>
<g>
</g>
<g>
</g>
<g>
</g>
<g>
</g>
<g>
</g>
<g>
</g>
<g>
</g>
<g>
</g>
<g>
</g>
<g>
</g>
<g>
</g>
<g>
</g>
</svg>
